<?xml version="1.0" encoding="UTF-8"?>
<svg width="1440px" height="1684px" viewBox="0 0 1440 1684" version="1.1" xmlns="http://www.w3.org/2000/svg" xmlns:xlink="http://www.w3.org/1999/xlink">
    <!-- Generator: Sketch 59 (86127) - https://sketch.com -->
    <title>Group 20</title>
    <desc>Created with Sketch.</desc>
    <g id="Page-1" stroke="none" stroke-width="1" fill="none" fill-rule="evenodd" fill-opacity="0.157233392">
        <g id="Desktop-HD" transform="translate(0.000000, -1549.000000)" fill="#4EF1C8">
            <g id="How-it-works" transform="translate(-280.000000, 1510.000000)">
                <g id="Group-19" transform="translate(0.511707, 0.303863)">
                    <g id="Group-20">
                        <path d="M337.696919,194.986274 C448.677284,123.835836 573.597204,21.0167086 746.488293,41.696137 C955.363953,66.6796641 1134.48829,238.696137 1351.48829,238.696137 C1464.57138,238.696137 1562.82127,288.256985 1642.71053,366.696137 C1768.93121,490.62573 1668.9258,726.452922 1676.14603,939.696137 C1682.60296,1130.39583 1788.40202,1469.78157 1642.71053,1528.46877 C1588.8141,1550.17924 1310.32596,1660.833 1115.48829,1656.69614 C943.983945,1653.0547 863.857464,1538.61114 688.488293,1500.98772 C524.536837,1465.81384 401.947076,1449.34195 303.369619,1348.61403 C-20.4383198,1017.74221 22.4055442,397.122206 337.696919,194.986274 Z" id="Rectangle"></path>
                        <path d="M338.185212,237.682411 C449.165578,166.531973 574.085497,63.7128456 746.976587,84.3922739 C955.852246,109.375801 1134.97659,281.392274 1351.97659,281.392274 C1465.05967,281.392274 1563.30957,330.953122 1643.19882,409.392274 C1769.4195,533.321867 1669.4141,769.149059 1676.63433,982.392274 C1683.09125,1173.09197 1788.89031,1512.47771 1643.19882,1571.16491 C1589.30239,1592.87538 1310.81425,1703.52913 1115.97659,1699.39227 C944.472239,1695.75084 864.345757,1581.30728 688.976587,1543.68386 C525.02513,1508.50998 402.435369,1492.03809 303.857913,1391.31016 C-19.9500263,1060.43835 22.8938376,439.818343 338.185212,237.682411 Z" id="Rectangle-Copy-2" transform="translate(900.128718, 890.600723) rotate(6.000000) translate(-900.128718, -890.600723) "></path>
                    </g>
                </g>
            </g>
        </g>
    </g>
</svg>