<?xml version="1.0" encoding="UTF-8"?>
<svg width="136px" height="26px" viewBox="0 0 136 26" version="1.1" xmlns="http://www.w3.org/2000/svg" xmlns:xlink="http://www.w3.org/1999/xlink">
    <!-- Generator: Sketch 59 (86127) - https://sketch.com -->
    <title>Group 17</title>
    <desc>Created with Sketch.</desc>
    <g id="Page-1" stroke="none" stroke-width="1" fill="none" fill-rule="evenodd">
        <g id="Desktop-HD" transform="translate(-141.000000, -220.000000)" fill="#0F1356">
            <g id="Group-17" transform="translate(141.000000, 216.000000)">
                <g id="seaweed" transform="translate(9.500000, 17.000000) rotate(-360.000000) translate(-9.500000, -17.000000) translate(0.000000, 4.000000)" fill-rule="nonzero">
                    <path d="M18.4745968,7.59119139 C18.1844507,7.59119139 17.9491937,7.82792823 17.9491937,8.11989952 L17.9491937,17.7148325 C17.9491937,21.0721292 16.2558502,23.9020239 13.9688011,24.7105742 C14.0780232,24.5918947 14.1832274,24.4655024 14.2841667,24.3315837 C15.0619488,23.2993589 15.4903069,21.9349187 15.4903069,20.4896172 L15.4903069,3.85956938 C15.4903069,3.56759809 15.2550499,3.33086124 14.9649037,3.33086124 C14.6747576,3.33086124 14.4395006,3.56759809 14.4395006,3.85956938 L14.4395006,20.4897416 C14.4395006,22.9450622 12.991304,24.9425837 11.2112999,24.9425837 L11.1255665,24.9425837 C11.5167755,24.3878756 11.7550613,23.658445 11.7550613,22.8599091 L11.7550613,0.528708134 C11.7550613,0.236736842 11.5198043,2.84217094e-14 11.2296581,2.84217094e-14 C10.9395119,2.84217094e-14 10.704255,0.236736842 10.704255,0.528708134 L10.704255,22.8599091 C10.704255,23.8720431 10.1732269,24.7428565 9.49996909,24.9122919 C8.8267113,24.7428565 8.29568324,23.8720431 8.29568324,22.8599091 L8.29568324,0.528708134 C8.29568324,0.236736842 8.06042624,2.84217094e-14 7.77028007,2.84217094e-14 C7.4801339,2.84217094e-14 7.24487691,0.236736842 7.24487691,0.528708134 L7.24487691,22.8599091 C7.24487691,23.658445 7.4831627,24.3878756 7.87437171,24.9425837 L7.78863828,24.9425837 C6.00863418,24.9425837 4.56049944,22.9450622 4.56049944,20.4897416 L4.56049944,3.85956938 C4.56049944,3.56759809 4.32524245,3.33086124 4.03509628,3.33086124 C3.74495011,3.33086124 3.50969312,3.56759809 3.50969312,3.85956938 L3.50969312,20.4897416 C3.50969312,21.9349809 3.93805123,23.2994211 4.71583334,24.3317081 C4.81671075,24.4656268 4.92197682,24.5919569 5.03119886,24.7106986 C2.74414981,23.9020861 1.05080632,21.0722536 1.05080632,17.7148947 L1.05080632,8.11989952 C1.05080632,7.82792823 0.815549331,7.59119139 0.525403162,7.59119139 C0.235256992,7.59119139 1.95399252e-14,7.82792823 1.95399252e-14,8.11989952 L1.95399252e-14,17.7148325 C1.95399252e-14,19.9012584 0.645813204,21.9625359 1.81851306,23.5189282 C3.02403516,25.1188612 4.64029891,26 6.36974068,26 L12.6301975,26 C14.3596393,26 15.975903,25.1188612 17.1814869,23.5189282 C18.3541868,21.9625981 19,19.9013206 19,17.7148325 L19,8.11989952 C19,7.82792823 18.764743,7.59119139 18.4745968,7.59119139 Z" id="Path"></path>
                </g>
                <text id="seaweed" font-family="NewYorkSmall-Bold, New York Small" font-size="27" font-weight="bold" letter-spacing="-1.1">
                    <tspan x="26" y="26">seaweed</tspan>
                </text>
            </g>
        </g>
    </g>
</svg>